<?xml version="1.0" standalone="no"?>
<!DOCTYPE svg PUBLIC "-//W3C//DTD SVG 20010904//EN"
 "http://www.w3.org/TR/2001/REC-SVG-20010904/DTD/svg10.dtd">
<svg version="1.0" xmlns="http://www.w3.org/2000/svg"
 width="700.000000pt" height="700.000000pt" viewBox="0 0 700.000000 700.000000"
 preserveAspectRatio="xMidYMid meet">
<metadata>
Created by potrace 1.11, written by Peter Selinger 2001-2013
</metadata>
<g transform="translate(0.000000,700.000000) scale(0.100000,-0.100000)"
fill="#000000" stroke="none">
<path d="M3259 6886 c-2 -2 -39 -7 -82 -11 -43 -3 -88 -8 -100 -10 -12 -2 -42
-6 -67 -9 -290 -33 -757 -180 -1040 -329 -168 -88 -211 -113 -345 -202 -542
-361 -977 -877 -1233 -1465 -87 -201 -191 -528 -218 -690 -3 -14 -9 -50 -14
-80 -5 -30 -12 -73 -15 -95 -3 -22 -7 -49 -10 -60 -20 -97 -28 -592 -11 -755
37 -372 125 -708 273 -1045 22 -49 56 -121 76 -160 30 -59 37 -67 43 -50 4 11
12 25 17 30 4 6 84 138 178 295 93 157 173 292 179 300 11 18 156 258 186 310
12 20 188 313 390 651 203 338 371 619 374 624 3 6 109 183 235 393 127 210
239 398 250 417 11 20 49 84 85 143 36 59 77 127 91 152 14 25 106 178 204
340 98 162 185 309 195 325 9 17 125 210 257 430 132 220 246 411 254 424 36
63 84 86 120 58 9 -7 110 -165 224 -352 115 -187 240 -392 280 -455 96 -155
1206 -1963 1226 -1998 27 -46 480 -785 504 -822 13 -19 101 -163 197 -320 96
-157 244 -397 328 -535 85 -137 156 -260 158 -272 5 -25 -13 -47 -48 -58 -30
-10 -3964 -10 -4008 0 -40 8 -56 34 -42 71 9 23 170 286 403 660 173 275 238
346 371 407 21 9 48 19 60 21 11 3 46 10 76 16 37 8 213 13 537 14 265 1 485
5 488 8 4 4 -2 19 -13 35 -11 15 -172 282 -357 593 -409 685 -418 700 -425
700 -3 -1 -149 -244 -325 -541 -176 -297 -371 -624 -432 -727 -62 -103 -116
-194 -119 -202 -4 -8 -22 -39 -41 -68 -18 -29 -33 -57 -33 -62 0 -6 -4 -10
-10 -10 -5 0 -10 -4 -10 -10 0 -8 -94 -170 -145 -250 -17 -27 -247 -410 -485
-810 -5 -8 -28 -46 -51 -85 -23 -38 -47 -79 -53 -90 -6 -11 -112 -188 -235
-393 -122 -205 -221 -379 -218 -386 9 -22 237 -188 378 -276 129 -81 329 -185
449 -235 36 -15 79 -33 95 -41 39 -18 290 -101 363 -120 216 -57 451 -95 674
-110 83 -5 358 -4 428 1 117 9 176 15 205 21 17 2 46 7 65 9 31 3 163 26 230
40 254 52 595 176 840 303 319 167 571 353 836 617 313 312 534 635 722 1055
71 159 182 518 208 670 4 24 14 76 20 110 2 8 6 37 9 64 4 27 9 58 11 69 27
141 26 664 -1 847 -3 19 -7 53 -10 75 -2 22 -6 49 -9 60 -2 11 -11 61 -21 110
-25 137 -69 300 -122 450 -168 483 -437 910 -797 1270 -155 155 -169 167 -306
276 -87 70 -313 229 -325 229 -2 0 -28 15 -57 34 -51 32 -350 186 -362 186 -4
0 -25 8 -49 19 -23 10 -69 29 -102 41 -33 12 -69 26 -80 31 -94 40 -423 123
-570 144 -11 2 -33 6 -50 8 -29 6 -74 12 -160 23 -47 7 -580 15 -586 10z"/>
</g>
</svg>
